<mxfile host="app.diagrams.net" modified="2023-05-18T09:04:43.626Z" agent="Mozilla/5.0 (X11; Linux x86_64) AppleWebKit/537.36 (KHTML, like Gecko) Chrome/110.0.0.0 Safari/537.36 Edg/110.0.1587.69" etag="6BkfiKQZ1S3pKuiemrnM" version="21.3.0" type="github">
  <diagram name="Page-1" id="hnre1S8qdK4mCI1038zQ">
    <mxGraphModel dx="2237" dy="802" grid="1" gridSize="10" guides="1" tooltips="1" connect="1" arrows="1" fold="1" page="1" pageScale="1" pageWidth="850" pageHeight="1100" math="0" shadow="0">
      <root>
        <mxCell id="0" />
        <mxCell id="1" parent="0" />
        <mxCell id="g1q65haaZmN9NMcbjqez-74" value="" style="rounded=1;whiteSpace=wrap;html=1;" parent="1" vertex="1">
          <mxGeometry x="-65.5" width="1100" height="820" as="geometry" />
        </mxCell>
        <mxCell id="g1q65haaZmN9NMcbjqez-39" value="User Middleware" style="rounded=1;whiteSpace=wrap;html=1;" parent="1" vertex="1">
          <mxGeometry x="365" y="510" width="120" height="60" as="geometry" />
        </mxCell>
        <mxCell id="g1q65haaZmN9NMcbjqez-3" style="edgeStyle=orthogonalEdgeStyle;rounded=0;orthogonalLoop=1;jettySize=auto;html=1;entryX=0.25;entryY=1;entryDx=0;entryDy=0;" parent="1" target="g1q65haaZmN9NMcbjqez-2" edge="1">
          <mxGeometry relative="1" as="geometry">
            <mxPoint x="135" y="320" as="sourcePoint" />
          </mxGeometry>
        </mxCell>
        <mxCell id="g1q65haaZmN9NMcbjqez-19" style="edgeStyle=orthogonalEdgeStyle;rounded=0;orthogonalLoop=1;jettySize=auto;html=1;entryX=0;entryY=0.25;entryDx=0;entryDy=0;" parent="1" source="g1q65haaZmN9NMcbjqez-1" target="g1q65haaZmN9NMcbjqez-6" edge="1">
          <mxGeometry relative="1" as="geometry" />
        </mxCell>
        <mxCell id="g1q65haaZmN9NMcbjqez-1" value="Actor" style="shape=umlActor;verticalLabelPosition=bottom;verticalAlign=top;html=1;outlineConnect=0;" parent="1" vertex="1">
          <mxGeometry x="140" y="325" width="30" height="60" as="geometry" />
        </mxCell>
        <mxCell id="g1q65haaZmN9NMcbjqez-4" value="access&lt;br&gt;token" style="edgeStyle=orthogonalEdgeStyle;rounded=0;orthogonalLoop=1;jettySize=auto;html=1;" parent="1" source="g1q65haaZmN9NMcbjqez-2" edge="1">
          <mxGeometry relative="1" as="geometry">
            <mxPoint x="165" y="320" as="targetPoint" />
          </mxGeometry>
        </mxCell>
        <mxCell id="g1q65haaZmN9NMcbjqez-2" value="Supabase&lt;br&gt;Auth" style="rounded=1;whiteSpace=wrap;html=1;" parent="1" vertex="1">
          <mxGeometry x="105" y="130" width="120" height="60" as="geometry" />
        </mxCell>
        <mxCell id="g1q65haaZmN9NMcbjqez-5" value="" style="points=[[0,0.5,0],[0.24,0,0],[0.5,0.28,0],[0.995,0.475,0],[0.5,0.72,0],[0.24,1,0]];verticalLabelPosition=bottom;sketch=0;html=1;verticalAlign=top;aspect=fixed;align=center;pointerEvents=1;shape=mxgraph.cisco19.key;fillColor=#005073;strokeColor=none;" parent="1" vertex="1">
          <mxGeometry x="153.89" y="270" width="22.22" height="10" as="geometry" />
        </mxCell>
        <mxCell id="g1q65haaZmN9NMcbjqez-20" style="edgeStyle=orthogonalEdgeStyle;rounded=0;orthogonalLoop=1;jettySize=auto;html=1;" parent="1" source="g1q65haaZmN9NMcbjqez-6" edge="1">
          <mxGeometry relative="1" as="geometry">
            <mxPoint x="180" y="370" as="targetPoint" />
          </mxGeometry>
        </mxCell>
        <mxCell id="g1q65haaZmN9NMcbjqez-31" style="edgeStyle=orthogonalEdgeStyle;rounded=0;orthogonalLoop=1;jettySize=auto;html=1;entryX=0.5;entryY=0;entryDx=0;entryDy=0;" parent="1" source="g1q65haaZmN9NMcbjqez-6" target="g1q65haaZmN9NMcbjqez-29" edge="1">
          <mxGeometry relative="1" as="geometry" />
        </mxCell>
        <mxCell id="g1q65haaZmN9NMcbjqez-6" value="Core&lt;br&gt;server" style="rounded=1;whiteSpace=wrap;html=1;" parent="1" vertex="1">
          <mxGeometry x="280" y="340" width="120" height="60" as="geometry" />
        </mxCell>
        <mxCell id="g1q65haaZmN9NMcbjqez-13" style="edgeStyle=orthogonalEdgeStyle;rounded=0;orthogonalLoop=1;jettySize=auto;html=1;entryX=0.75;entryY=0;entryDx=0;entryDy=0;" parent="1" source="g1q65haaZmN9NMcbjqez-7" target="g1q65haaZmN9NMcbjqez-8" edge="1">
          <mxGeometry relative="1" as="geometry" />
        </mxCell>
        <mxCell id="g1q65haaZmN9NMcbjqez-15" style="edgeStyle=orthogonalEdgeStyle;rounded=0;orthogonalLoop=1;jettySize=auto;html=1;entryX=1;entryY=0.5;entryDx=0;entryDy=0;entryPerimeter=0;" parent="1" source="g1q65haaZmN9NMcbjqez-7" target="g1q65haaZmN9NMcbjqez-10" edge="1">
          <mxGeometry relative="1" as="geometry" />
        </mxCell>
        <mxCell id="g1q65haaZmN9NMcbjqez-7" value="product" style="shape=cylinder3;whiteSpace=wrap;html=1;boundedLbl=1;backgroundOutline=1;size=15;" parent="1" vertex="1">
          <mxGeometry x="675" y="100" width="60" height="80" as="geometry" />
        </mxCell>
        <mxCell id="g1q65haaZmN9NMcbjqez-17" style="edgeStyle=orthogonalEdgeStyle;rounded=0;orthogonalLoop=1;jettySize=auto;html=1;entryX=1;entryY=0.5;entryDx=0;entryDy=0;exitX=0.5;exitY=1;exitDx=0;exitDy=0;" parent="1" source="g1q65haaZmN9NMcbjqez-8" target="g1q65haaZmN9NMcbjqez-9" edge="1">
          <mxGeometry relative="1" as="geometry" />
        </mxCell>
        <mxCell id="g1q65haaZmN9NMcbjqez-8" value="Product &lt;br&gt;Service" style="rounded=1;whiteSpace=wrap;html=1;" parent="1" vertex="1">
          <mxGeometry x="630" y="240" width="100" height="50" as="geometry" />
        </mxCell>
        <mxCell id="g1q65haaZmN9NMcbjqez-18" style="edgeStyle=orthogonalEdgeStyle;rounded=0;orthogonalLoop=1;jettySize=auto;html=1;entryX=1;entryY=0.5;entryDx=0;entryDy=0;" parent="1" source="g1q65haaZmN9NMcbjqez-9" target="g1q65haaZmN9NMcbjqez-6" edge="1">
          <mxGeometry relative="1" as="geometry" />
        </mxCell>
        <mxCell id="g1q65haaZmN9NMcbjqez-9" value="Product&lt;br&gt;Controller" style="rounded=1;whiteSpace=wrap;html=1;" parent="1" vertex="1">
          <mxGeometry x="440" y="340" width="120" height="60" as="geometry" />
        </mxCell>
        <mxCell id="g1q65haaZmN9NMcbjqez-12" style="edgeStyle=orthogonalEdgeStyle;rounded=0;orthogonalLoop=1;jettySize=auto;html=1;entryX=0.5;entryY=0;entryDx=0;entryDy=0;" parent="1" source="g1q65haaZmN9NMcbjqez-10" target="g1q65haaZmN9NMcbjqez-11" edge="1">
          <mxGeometry relative="1" as="geometry" />
        </mxCell>
        <mxCell id="g1q65haaZmN9NMcbjqez-14" value="Populate" style="edgeStyle=orthogonalEdgeStyle;rounded=0;orthogonalLoop=1;jettySize=auto;html=1;entryX=0;entryY=0.5;entryDx=0;entryDy=0;entryPerimeter=0;" parent="1" source="g1q65haaZmN9NMcbjqez-10" target="g1q65haaZmN9NMcbjqez-7" edge="1">
          <mxGeometry relative="1" as="geometry" />
        </mxCell>
        <mxCell id="g1q65haaZmN9NMcbjqez-10" value="item" style="shape=cylinder3;whiteSpace=wrap;html=1;boundedLbl=1;backgroundOutline=1;size=15;" parent="1" vertex="1">
          <mxGeometry x="480" y="100" width="60" height="80" as="geometry" />
        </mxCell>
        <mxCell id="g1q65haaZmN9NMcbjqez-16" style="edgeStyle=orthogonalEdgeStyle;rounded=0;orthogonalLoop=1;jettySize=auto;html=1;entryX=0.592;entryY=-0.05;entryDx=0;entryDy=0;entryPerimeter=0;exitX=0.33;exitY=0.989;exitDx=0;exitDy=0;exitPerimeter=0;" parent="1" edge="1" source="g1q65haaZmN9NMcbjqez-11">
          <mxGeometry relative="1" as="geometry">
            <mxPoint x="492" y="290" as="sourcePoint" />
            <mxPoint x="493.03999999999996" y="337" as="targetPoint" />
          </mxGeometry>
        </mxCell>
        <mxCell id="g1q65haaZmN9NMcbjqez-11" value="Item&lt;br&gt;Service" style="rounded=1;whiteSpace=wrap;html=1;" parent="1" vertex="1">
          <mxGeometry x="461" y="240" width="100" height="50" as="geometry" />
        </mxCell>
        <mxCell id="g1q65haaZmN9NMcbjqez-21" value="" style="points=[[0,0.5,0],[0.24,0,0],[0.5,0.28,0],[0.995,0.475,0],[0.5,0.72,0],[0.24,1,0]];verticalLabelPosition=bottom;sketch=0;html=1;verticalAlign=top;aspect=fixed;align=center;pointerEvents=1;shape=mxgraph.cisco19.key;fillColor=#005073;strokeColor=none;" parent="1" vertex="1">
          <mxGeometry x="208.89" y="342" width="22.22" height="10" as="geometry" />
        </mxCell>
        <mxCell id="g1q65haaZmN9NMcbjqez-36" style="edgeStyle=orthogonalEdgeStyle;rounded=0;orthogonalLoop=1;jettySize=auto;html=1;entryX=0.25;entryY=1;entryDx=0;entryDy=0;exitX=0.25;exitY=0;exitDx=0;exitDy=0;" parent="1" source="g1q65haaZmN9NMcbjqez-29" target="g1q65haaZmN9NMcbjqez-6" edge="1">
          <mxGeometry relative="1" as="geometry">
            <Array as="points">
              <mxPoint x="239" y="430" />
              <mxPoint x="310" y="430" />
            </Array>
          </mxGeometry>
        </mxCell>
        <mxCell id="g1q65haaZmN9NMcbjqez-29" value="Admin Middleware" style="rounded=1;whiteSpace=wrap;html=1;" parent="1" vertex="1">
          <mxGeometry x="208.89" y="510" width="120" height="60" as="geometry" />
        </mxCell>
        <mxCell id="g1q65haaZmN9NMcbjqez-32" value="" style="sketch=0;outlineConnect=0;fontColor=#232F3E;gradientColor=none;fillColor=#232F3D;strokeColor=none;dashed=0;verticalLabelPosition=bottom;verticalAlign=top;align=center;html=1;fontSize=12;fontStyle=0;aspect=fixed;pointerEvents=1;shape=mxgraph.aws4.question;" parent="1" vertex="1">
          <mxGeometry x="464" y="488" width="41" height="78" as="geometry" />
        </mxCell>
        <mxCell id="g1q65haaZmN9NMcbjqez-34" style="edgeStyle=orthogonalEdgeStyle;rounded=0;orthogonalLoop=1;jettySize=auto;html=1;entryX=0.25;entryY=1;entryDx=0;entryDy=0;" parent="1" source="g1q65haaZmN9NMcbjqez-33" target="g1q65haaZmN9NMcbjqez-29" edge="1">
          <mxGeometry relative="1" as="geometry" />
        </mxCell>
        <mxCell id="g1q65haaZmN9NMcbjqez-33" value="Admin&lt;br&gt;DB" style="shape=cylinder3;whiteSpace=wrap;html=1;boundedLbl=1;backgroundOutline=1;size=15;" parent="1" vertex="1">
          <mxGeometry x="125" y="650" width="60" height="80" as="geometry" />
        </mxCell>
        <mxCell id="g1q65haaZmN9NMcbjqez-35" value="" style="points=[[0,0.5,0],[0.24,0,0],[0.5,0.28,0],[0.995,0.475,0],[0.5,0.72,0],[0.24,1,0]];verticalLabelPosition=bottom;sketch=0;html=1;verticalAlign=top;aspect=fixed;align=center;pointerEvents=1;shape=mxgraph.cisco19.key;fillColor=#005073;strokeColor=none;" parent="1" vertex="1">
          <mxGeometry x="280" y="460" width="22.22" height="10" as="geometry" />
        </mxCell>
        <mxCell id="g1q65haaZmN9NMcbjqez-37" value="User&lt;br&gt;Info" style="ellipse;whiteSpace=wrap;html=1;align=center;fontStyle=4;" parent="1" vertex="1">
          <mxGeometry x="208.89" y="420" width="53.89" height="40" as="geometry" />
        </mxCell>
        <mxCell id="g1q65haaZmN9NMcbjqez-40" value="&lt;font style=&quot;font-size: 17px;&quot;&gt;&lt;b&gt;Item and Product System&lt;br&gt;&lt;/b&gt;&lt;/font&gt;" style="text;html=1;strokeColor=none;fillColor=none;align=center;verticalAlign=middle;whiteSpace=wrap;rounded=0;" parent="1" vertex="1">
          <mxGeometry x="10" y="20" width="191.11" height="50" as="geometry" />
        </mxCell>
        <mxCell id="g1q65haaZmN9NMcbjqez-41" value="2023.04.18&lt;br&gt;produced by cybinon" style="text;html=1;strokeColor=none;fillColor=none;align=center;verticalAlign=middle;whiteSpace=wrap;rounded=0;fontStyle=2" parent="1" vertex="1">
          <mxGeometry x="680" y="740" width="148" height="20" as="geometry" />
        </mxCell>
      </root>
    </mxGraphModel>
  </diagram>
</mxfile>
